<svg width="20" height="20" viewBox="0 0 20 20" fill="none" xmlns="http://www.w3.org/2000/svg">
<path fill-rule="evenodd" clip-rule="evenodd" d="M15.2775 16.0565C15.6006 16.3745 16.1183 16.3681 16.4338 16.0422C16.7494 15.7163 16.7434 15.1942 16.4203 14.8762L11.086 9.62423L16.4203 4.37225C16.7434 4.05422 16.7494 3.53218 16.4338 3.20625C16.1183 2.88032 15.6006 2.87393 15.2775 3.19197L9.91515 8.47152L4.72237 3.35897C4.39934 3.04093 3.88165 3.04732 3.56608 3.37325C3.2505 3.69918 3.25655 4.22122 3.57958 4.53926L8.74435 9.62423L3.57958 14.7092C3.25655 15.0272 3.2505 15.5493 3.56608 15.8752C3.88165 16.2011 4.39934 16.2075 4.72237 15.8895L9.91515 10.7769L15.2775 16.0565Z" fill="#0F6CBD"/>
</svg>
